<svg width="119" height="120" viewBox="0 0 119 120" fill="none" xmlns="http://www.w3.org/2000/svg">
<mask id="path-1-inside-1_101_34" fill="white">
<path fill-rule="evenodd" clip-rule="evenodd" d="M69.2079 33.3432C61.7877 39.0071 57 47.9445 57 58C57 67.9817 61.7177 76.8616 69.0449 82.5315C68.8216 83.1067 68.711 83.7094 68.7506 84.3335C68.6969 85.1834 68.9133 86.0778 69.5001 87C73.0001 92.5 81.5 103 82.5 103.5C83.0066 103.753 84.409 104.956 85.7927 106.142L85.7928 106.142L85.7932 106.143C86.5942 106.83 87.389 107.511 88 108C88.082 107.016 88.0968 105.884 88.1126 104.666C88.19 98.7329 88.2941 90.7547 96.3268 87.8689C97.327 87.5907 98.3067 87.2636 99.2634 86.8903C110.815 82.3833 119 71.1474 119 58C119 43.7638 109.404 31.7689 96.3268 28.1311C88.2941 25.2453 88.19 17.2671 88.1126 11.3337C88.0968 10.1157 88.082 8.98392 88 8C87.3888 8.48891 86.5939 9.17055 85.7928 9.85756L85.7928 9.85757C84.409 11.0441 83.0066 12.2467 82.5 12.5C81.5 13 73.0001 23.5 69.5001 29C68.5118 30.553 68.5742 32.0271 69.2079 33.3432Z"/>
</mask>
<path fill-rule="evenodd" clip-rule="evenodd" d="M69.2079 33.3432C61.7877 39.0071 57 47.9445 57 58C57 67.9817 61.7177 76.8616 69.0449 82.5315C68.8216 83.1067 68.711 83.7094 68.7506 84.3335C68.6969 85.1834 68.9133 86.0778 69.5001 87C73.0001 92.5 81.5 103 82.5 103.5C83.0066 103.753 84.409 104.956 85.7927 106.142L85.7928 106.142L85.7932 106.143C86.5942 106.83 87.389 107.511 88 108C88.082 107.016 88.0968 105.884 88.1126 104.666C88.19 98.7329 88.2941 90.7547 96.3268 87.8689C97.327 87.5907 98.3067 87.2636 99.2634 86.8903C110.815 82.3833 119 71.1474 119 58C119 43.7638 109.404 31.7689 96.3268 28.1311C88.2941 25.2453 88.19 17.2671 88.1126 11.3337C88.0968 10.1157 88.082 8.98392 88 8C87.3888 8.48891 86.5939 9.17055 85.7928 9.85756L85.7928 9.85757C84.409 11.0441 83.0066 12.2467 82.5 12.5C81.5 13 73.0001 23.5 69.5001 29C68.5118 30.553 68.5742 32.0271 69.2079 33.3432Z" fill="white"/>
<path d="M69.2079 33.3432L69.8146 34.1381L70.4624 33.6437L70.1089 32.9094L69.2079 33.3432ZM69.0449 82.5315L69.9771 82.8934L70.2473 82.1975L69.6569 81.7407L69.0449 82.5315ZM68.7506 84.3335L69.7486 84.3965L69.7526 84.3334L69.7486 84.2702L68.7506 84.3335ZM69.5001 87L70.3438 86.4631L70.3438 86.4631L69.5001 87ZM82.5 103.5L82.9472 102.606L82.9472 102.606L82.5 103.5ZM85.7927 106.142L86.4998 105.435L86.4727 105.408L86.4437 105.383L85.7927 106.142ZM85.7928 106.142L85.0856 106.85L85.1121 106.876L85.1404 106.9L85.7928 106.142ZM85.7932 106.143L85.1408 106.901L85.1423 106.902L85.7932 106.143ZM88 108L87.3753 108.781L88.8407 109.953L88.9965 108.083L88 108ZM88.1126 104.666L89.1126 104.679L89.1126 104.679L88.1126 104.666ZM96.3268 87.8689L96.0588 86.9055L96.0234 86.9154L95.9887 86.9278L96.3268 87.8689ZM99.2634 86.8903L98.8999 85.9587L98.8999 85.9587L99.2634 86.8903ZM96.3268 28.1311L95.9887 29.0722L96.0234 29.0846L96.0588 29.0945L96.3268 28.1311ZM88.1126 11.3337L89.1126 11.3207L89.1126 11.3207L88.1126 11.3337ZM88 8L88.9965 7.91695L88.8407 6.04684L87.3753 7.21912L88 8ZM85.7928 9.85756L85.1418 9.09844L85.1127 9.12337L85.0857 9.15045L85.7928 9.85756ZM85.7928 9.85757L86.4437 10.6167L86.4728 10.5918L86.4999 10.5647L85.7928 9.85757ZM82.5 12.5L82.9472 13.3944L82.9472 13.3944L82.5 12.5ZM69.5001 29L70.3438 29.5369L70.3438 29.5369L69.5001 29ZM58 58C58 48.2694 62.6316 39.621 69.8146 34.1381L68.6011 32.5483C60.9438 38.3933 56 47.6195 56 58H58ZM69.6569 81.7407C62.5638 76.252 58 67.6592 58 58H56C56 68.3043 60.8715 77.4712 68.4329 83.3224L69.6569 81.7407ZM69.7486 84.2702C69.7193 83.8086 69.7996 83.3508 69.9771 82.8934L68.1127 82.1696C67.8437 82.8626 67.7027 83.6103 67.7526 84.3968L69.7486 84.2702ZM67.7526 84.2704C67.6844 85.3496 67.966 86.4519 68.6565 87.5369L70.3438 86.4631C69.8605 85.7038 69.7094 85.0173 69.7486 84.3965L67.7526 84.2704ZM68.6565 87.5369C70.4355 90.3325 73.462 94.3656 76.1553 97.7479C77.5047 99.4426 78.78 100.986 79.7846 102.141C80.2859 102.717 80.7269 103.205 81.0797 103.569C81.2554 103.75 81.4179 103.91 81.5605 104.038C81.6794 104.144 81.8585 104.297 82.0528 104.394L82.9472 102.606C83.0165 102.64 83.012 102.653 82.8948 102.548C82.8013 102.464 82.6752 102.342 82.516 102.177C82.1989 101.85 81.7844 101.392 81.2936 100.828C80.3138 99.7017 79.0578 98.1824 77.7198 96.5021C75.0382 93.1344 72.0647 89.1675 70.3438 86.4631L68.6565 87.5369ZM82.0528 104.394C82.1846 104.46 82.5679 104.74 83.1839 105.245C83.7602 105.717 84.4473 106.306 85.1418 106.902L86.4437 105.383C85.7544 104.792 85.0485 104.187 84.451 103.698C83.8933 103.241 83.3221 102.793 82.9472 102.606L82.0528 104.394ZM85.0856 106.849L85.0856 106.85L86.4999 105.435L86.4998 105.435L85.0856 106.849ZM85.1404 106.9L85.1408 106.901L86.4456 105.385L86.4451 105.385L85.1404 106.9ZM85.1423 106.902C85.9384 107.585 86.7479 108.279 87.3753 108.781L88.6247 107.219C88.03 106.743 87.2501 106.075 86.4442 105.384L85.1423 106.902ZM88.9965 108.083C89.082 107.057 89.0968 105.887 89.1126 104.679L87.1127 104.653C87.0967 105.881 87.0819 106.975 87.0035 107.917L88.9965 108.083ZM89.1126 104.679C89.1516 101.683 89.2031 98.3661 90.1845 95.443C91.1434 92.5868 92.982 90.1331 96.6649 88.81L95.9887 86.9278C91.639 88.4904 89.4091 91.4687 88.2885 94.8064C87.1903 98.0773 87.151 101.716 87.1127 104.653L89.1126 104.679ZM98.8999 85.9587C97.9743 86.3199 97.0264 86.6363 96.0588 86.9055L96.5948 88.8323C97.6275 88.5451 98.6391 88.2073 99.6269 87.8219L98.8999 85.9587ZM118 58C118 70.7218 110.081 81.5964 98.8999 85.9587L99.6269 87.8219C111.55 83.1702 120 71.5731 120 58H118ZM96.0588 29.0945C108.714 32.6151 118 44.2244 118 58H120C120 43.3031 110.093 30.9227 96.5948 27.1677L96.0588 29.0945ZM87.1127 11.3468C87.151 14.2841 87.1903 17.9227 88.2885 21.1936C89.4091 24.5313 91.639 27.5095 95.9887 29.0722L96.6649 27.19C92.982 25.8669 91.1434 23.4132 90.1845 20.557C89.2031 17.6339 89.1516 14.3168 89.1126 11.3207L87.1127 11.3468ZM87.0035 8.08305C87.0819 9.02492 87.0967 10.1188 87.1127 11.3468L89.1126 11.3207C89.0968 10.1127 89.082 8.94292 88.9965 7.91695L87.0035 8.08305ZM86.4437 10.6167C87.2498 9.92548 88.0299 9.25671 88.6247 8.78088L87.3753 7.21912C86.7478 7.72112 85.9381 8.41562 85.1418 9.09844L86.4437 10.6167ZM86.4999 10.5647L86.4999 10.5647L85.0857 9.15045L85.0856 9.15046L86.4999 10.5647ZM82.9472 13.3944C83.3221 13.207 83.8933 12.7592 84.4511 12.3024C85.0485 11.8131 85.7545 11.2077 86.4437 10.6167L85.1418 9.09845C84.4473 9.69397 83.7602 10.2831 83.1839 10.7551C82.5679 11.2595 82.1846 11.5397 82.0528 11.6056L82.9472 13.3944ZM70.3438 29.5369C72.0647 26.8325 75.0382 22.8656 77.7198 19.4979C79.0578 17.8176 80.3138 16.2983 81.2936 15.1719C81.7844 14.6077 82.1989 14.1501 82.516 13.8228C82.6752 13.6585 82.8013 13.5359 82.8948 13.4522C83.012 13.3473 83.0165 13.3598 82.9472 13.3944L82.0528 11.6056C81.8585 11.7027 81.6794 11.8558 81.5605 11.9623C81.4179 12.0901 81.2554 12.2497 81.0797 12.4311C80.7269 12.7952 80.2859 13.283 79.7846 13.8593C78.78 15.0142 77.5047 16.5574 76.1553 18.2521C73.462 21.6344 70.4355 25.6675 68.6565 28.4631L70.3438 29.5369ZM70.1089 32.9094C69.6121 31.8778 69.5569 30.7734 70.3438 29.5369L68.6565 28.4631C67.4668 30.3327 67.5362 32.1765 68.3069 33.777L70.1089 32.9094Z" fill="#E2DFDA" mask="url(#path-1-inside-1_101_34)"/>
<path d="M87 107.445L84.6923 114.978L69.1154 120L57 104.934V19.0573L83.8269 6H87V10.1714V104.934V107.445Z" fill="white"/>
<path d="M95 58.0596C95 57.8782 95.0536 57.6969 95.1606 57.5587L98.528 53.2077C98.7422 52.9309 99.0895 52.9309 99.3037 53.2077C99.5178 53.4843 99.5178 53.933 99.3037 54.2098L96.324 58.0596L99.3036 61.9094C99.5177 62.1862 99.5177 62.6348 99.3036 62.9115C99.0894 63.1884 98.7421 63.1884 98.5279 62.9115L95.1605 58.5606C95.0535 58.4222 95 58.2409 95 58.0596Z" fill="black"/>
<path d="M99.5357 58.0595C99.5357 57.8782 99.5893 57.6968 99.6963 57.5586L103.064 53.2076C103.278 52.9308 103.625 52.9308 103.839 53.2076C104.054 53.4843 104.054 53.9329 103.839 54.2097L100.86 58.0595L103.839 61.9093C104.053 62.1861 104.053 62.6347 103.839 62.9114C103.625 63.1883 103.278 63.1883 103.064 62.9114L99.6962 58.5605C99.5892 58.4221 99.5357 58.2408 99.5357 58.0595Z" fill="black"/>
</svg>
