<svg width="18" height="18" viewBox="0 0 18 18" fill="none" xmlns="http://www.w3.org/2000/svg">
<path d="M1.75396 18C1.27162 18 0.858563 17.8281 0.514787 17.4843C0.171596 17.1411 0 16.7284 0 16.246V3.96833C0 3.48599 0.171596 3.07294 0.514787 2.72916C0.858563 2.38597 1.27162 2.21437 1.75396 2.21437H9.581L7.82704 3.96833H1.75396V16.246H14.0317V10.151L15.7856 8.39708V16.246C15.7856 16.7284 15.614 17.1411 15.2708 17.4843C14.9271 17.8281 14.514 18 14.0317 18H1.75396ZM11.5542 2.71864L12.8039 3.94641L7.01583 9.73447V10.9842H8.2436L14.0536 5.17418L15.3033 6.40195L9.4933 12.2119C9.33252 12.3727 9.14631 12.5008 8.93466 12.5961C8.72244 12.6908 8.49939 12.7381 8.26553 12.7381H6.13885C5.89038 12.7381 5.68224 12.6542 5.51445 12.4864C5.34607 12.3181 5.26188 12.1096 5.26188 11.8611V9.73447C5.26188 9.50061 5.30572 9.27756 5.39342 9.06533C5.48112 8.85369 5.60536 8.66748 5.76614 8.5067L11.5542 2.71864ZM15.3033 6.40195L11.5542 2.71864L13.7466 0.526188C14.0974 0.175396 14.5178 0 15.0077 0C15.4971 0 15.9099 0.175396 16.246 0.526188L17.4738 1.77588C17.81 2.11206 17.9781 2.52132 17.9781 3.00365C17.9781 3.48599 17.81 3.89525 17.4738 4.23142L15.3033 6.40195Z" fill="#17A2B8"/>
</svg>
