<svg width="23" height="24" viewBox="0 0 23 24" fill="none" xmlns="http://www.w3.org/2000/svg">
<path d="M9.48412 0.000455313C9.27195 -0.000295717 9.05914 -8.11386e-05 8.84574 0.000830827C7.8186 0.00560523 6.77504 0.0325887 5.72258 0.0716422L6.02707 1.40703C7.12309 1.28311 8.32469 1.19084 9.52618 1.1447C10.1771 1.1197 10.8241 1.10651 11.4516 1.10983C13.3343 1.11965 15.0424 1.27774 16.16 1.71077L16.6379 1.89606L16.4246 2.36196C14.8656 5.76762 14.505 9.05321 14.7493 12.277C14.8699 8.4511 16.4602 5.04829 18.5479 0.685985C15.7071 0.213909 12.6666 0.0110232 9.48412 0.000401493V0.000455313ZM10.988 2.08135C10.5191 2.08172 10.0412 2.09122 9.56324 2.10956C7.32775 2.19539 5.10003 2.45772 3.64813 2.75845C5.26998 5.76681 6.58198 8.78209 7.42919 11.7216C7.53457 11.7181 7.64006 11.7189 7.74538 11.724C7.96092 11.7346 8.17411 11.7638 8.38241 11.8093C7.52007 9.05209 6.53783 6.50915 5.31681 3.97008L5.04092 3.3964L5.66781 3.28546C7.24261 3.00661 8.86806 2.89868 10.4151 2.8982C10.5182 2.8982 10.6211 2.89857 10.7234 2.89949C11.7064 2.90807 12.6538 2.95892 13.5315 3.03548L14.1245 3.08724L13.9516 3.65679C12.9484 6.95934 12.7519 10.5061 13.3191 13.8806C13.3285 13.8893 13.3381 13.898 13.3473 13.9069C13.5519 13.8352 13.7432 13.7621 13.9216 13.684C13.4788 10.0687 13.675 6.33877 15.3286 2.46142C14.4058 2.22629 12.9991 2.10339 11.4534 2.08408C11.2983 2.08216 11.1431 2.08121 10.988 2.08135ZM18.7636 2.47751C17.1029 5.99427 15.9235 8.81245 15.7301 11.8548C16.8051 8.27123 18.8828 5.0588 21.2504 2.99492C20.4286 2.78992 19.599 2.61732 18.7636 2.47751ZM2.94039 3.4715C1.93401 3.679 0.950912 3.9424 0 4.30633C0.462742 4.70759 1.29928 5.45406 2.31425 6.44617C2.78139 5.96535 3.25781 5.49032 3.75472 5.05838C3.49153 4.52522 3.22006 3.9962 2.94039 3.4715ZM10.5592 3.87287C9.82857 3.86933 9.08065 3.89025 8.33005 3.94224C8.2513 4.67621 7.81721 5.36286 7.29873 6.03815C8.12652 7.99453 8.84145 9.99087 9.48508 12.1104C10.4708 12.4012 11.446 12.7449 12.236 13.1567C11.9426 10.8791 11.9827 8.54525 12.3637 6.26292C11.6725 5.5489 11.3124 4.75603 11.2835 3.8843C11.0421 3.87787 10.8007 3.87406 10.5592 3.87287ZM20.3236 5.32048C18.9969 6.89228 17.828 8.8609 17.0314 11.0021C18.494 8.92167 20.2925 7.29891 22.2069 6.15263C21.5832 5.86612 20.9554 5.58871 20.3236 5.32048ZM4.19037 5.96203C3.40748 6.6695 2.63392 7.51864 1.82833 8.32761C3.56047 9.35711 5.03582 10.5763 6.23935 11.9572C6.31407 11.929 6.38955 11.9036 6.46546 11.8805C5.90229 9.94415 5.1305 7.96266 4.19037 5.96203ZM16.7104 12.6543C15.8308 13.7159 15.0027 14.2763 13.8624 14.7234C13.9907 15.218 13.8002 15.7859 13.3617 16.2202C13.1038 16.4756 12.7796 16.7667 12.3057 16.9559C12.3741 16.9964 12.4439 17.0345 12.515 17.07C13.1782 17.401 14.35 17.2943 15.4386 16.7992C16.5238 16.3056 17.4933 15.4531 17.8526 14.5895C18.0327 14.104 17.9041 13.8508 17.5889 13.4795C17.3644 13.2153 17.0366 12.9489 16.7104 12.6544V12.6543ZM7.58653 12.6858C7.01173 12.6805 6.42796 12.8464 5.94553 13.2094C5.25941 13.7256 4.73047 14.6462 4.72575 16.2099V16.2207L4.72521 16.2314C4.56857 19.5242 4.81105 21.0434 5.29144 21.8676C5.71545 22.5951 6.42067 22.9434 7.45226 23.5839C7.5014 23.4549 7.55258 23.2961 7.60059 23.0959C7.72274 22.5863 7.8238 21.8864 7.88786 21.1123C8.01601 19.5643 7.99729 17.7053 7.78298 16.3677L7.66974 15.6601L8.36798 15.8208C10.064 16.211 11.0341 16.257 11.5974 16.1577C12.1608 16.0582 12.3517 15.8614 12.6822 15.5341C12.9928 15.2266 12.987 15.116 12.9212 14.9429C12.8554 14.7698 12.5913 14.4845 12.1434 14.2116C11.2473 13.6657 9.72477 13.1595 8.30162 12.7821C8.0682 12.7203 7.82798 12.6879 7.58653 12.6858ZM17.7308 16.4096C17.1937 16.9329 16.5326 17.3624 15.8384 17.6781C14.7127 18.19 13.4746 18.4242 12.4474 18.0833C12.0848 18.2183 11.8741 18.3734 11.7678 18.5018C11.622 18.6779 11.6129 18.8075 11.6623 18.9931C11.7117 19.1788 11.8589 19.3991 12.041 19.5577C12.223 19.7163 12.4394 19.7987 12.5216 19.8025C15.0319 19.9217 16.1183 19.2013 17.4718 18.3658C17.8665 18.1221 18.0176 17.6285 17.9798 17.1356C17.9608 16.8892 17.8891 16.6576 17.8063 16.5117C17.7858 16.4745 17.7604 16.4402 17.7308 16.4096ZM8.8157 16.8976C8.96199 18.2423 8.96441 19.8112 8.85014 21.192C8.78325 22.0005 8.67982 22.7359 8.53959 23.3209C8.4786 23.5755 8.41149 23.8012 8.33037 24L16.1999 23.6532C16.1111 23.3233 16.0205 22.9921 15.9301 22.6606C15.6277 22.7613 15.3187 22.8406 15.0052 22.898L15.0076 22.9371L14.5615 22.9649C14.2867 22.9979 14.0008 23.016 13.7041 23.0181L9.20538 23.2976L9.33912 22.675C9.76543 20.6898 9.80475 18.9419 9.54179 17.0297C9.29891 16.9904 9.05681 16.9463 8.81565 16.8976H8.8157ZM10.5308 17.1488C10.7426 18.8619 10.7171 20.4968 10.4018 22.2558L11.4352 22.1917C11.2731 21.9525 11.1618 21.6827 11.108 21.3989C11.0384 21.0298 11.0771 20.619 11.3186 20.2793C11.3292 20.2643 11.3408 20.2498 11.3522 20.2353C11.0708 19.9754 10.8357 19.6419 10.7292 19.2416C10.6158 18.8154 10.6866 18.2937 11.0241 17.886C11.1356 17.7513 11.2704 17.6298 11.4287 17.5203C11.2887 17.4087 11.1659 17.2905 11.0599 17.1672C10.8956 17.1684 10.7196 17.1622 10.5308 17.1488ZM17.6477 19.3904C16.3894 20.155 14.9757 20.8858 12.4758 20.7671C12.3942 20.7631 12.3131 20.7521 12.2334 20.7341C12.1673 20.7638 12.132 20.8015 12.1056 20.8386C12.054 20.9113 12.0235 21.0424 12.0569 21.2202C12.1238 21.5757 12.4606 21.9652 12.7741 22.0017C14.9942 22.2599 16.5281 21.5336 17.4595 20.6887C17.8887 20.2993 17.8923 20.0503 17.8291 19.7793C17.7975 19.644 17.7277 19.5128 17.6477 19.3904ZM17.2892 22.0223C17.1402 22.1157 16.9872 22.2027 16.8307 22.283C16.9192 22.6076 17.0079 22.9323 17.0955 23.2569L18.1642 23.0653C17.8884 22.83 17.6727 22.585 17.4995 22.3413C17.4221 22.2325 17.354 22.1267 17.2892 22.0223Z" fill="black"/>
</svg>
