<svg width="15" height="16" viewBox="0 0 15 16" fill="none" xmlns="http://www.w3.org/2000/svg">
<path d="M6 9.2V15.6H0V9.2H6ZM4.5 10.8H1.5V14H4.5V10.8ZM6.75 0L10.875 7.2H2.625L6.75 0ZM6.75 3.088L5.31 5.6H8.19L6.75 3.088ZM10.875 8.8C12.75 8.8 14.25 10.4 14.25 12.4C14.25 14.4 12.75 16 10.875 16C9 16 7.5 14.4 7.5 12.4C7.5 10.4 9 8.8 10.875 8.8ZM10.875 10.4C10.3777 10.4 9.90081 10.6107 9.54918 10.9858C9.19754 11.3609 9 11.8696 9 12.4C9 12.9304 9.19754 13.4391 9.54918 13.8142C9.90081 14.1893 10.3777 14.4 10.875 14.4C11.3723 14.4 11.8492 14.1893 12.2008 13.8142C12.5525 13.4391 12.75 12.9304 12.75 12.4C12.75 11.8696 12.5525 11.3609 12.2008 10.9858C11.8492 10.6107 11.3723 10.4 10.875 10.4Z" fill="black"/>
</svg>
