<svg width="17" height="12" viewBox="0 0 17 12" fill="none" xmlns="http://www.w3.org/2000/svg">
<path d="M11.4 8.4C11.2409 8.4 11.0883 8.46321 10.9757 8.57574C10.8632 8.68826 10.8 8.84087 10.8 9C10.8 9.15913 10.8632 9.31174 10.9757 9.42426C11.0883 9.53679 11.2409 9.6 11.4 9.6H13.8C13.9591 9.6 14.1117 9.53679 14.2243 9.42426C14.3368 9.31174 14.4 9.15913 14.4 9C14.4 8.84087 14.3368 8.68826 14.2243 8.57574C14.1117 8.46321 13.9591 8.4 13.8 8.4H11.4ZM0 3C0 2.20435 0.316071 1.44129 0.87868 0.87868C1.44129 0.316071 2.20435 0 3 0H13.8C14.5957 0 15.3587 0.316071 15.9213 0.87868C16.4839 1.44129 16.8 2.20435 16.8 3V9C16.8 9.79565 16.4839 10.5587 15.9213 11.1213C15.3587 11.6839 14.5957 12 13.8 12H3C2.20435 12 1.44129 11.6839 0.87868 11.1213C0.316071 10.5587 0 9.79565 0 9V3ZM15.6 3.6V3C15.6 2.52261 15.4104 2.06477 15.0728 1.72721C14.7352 1.38964 14.2774 1.2 13.8 1.2H3C2.52261 1.2 2.06477 1.38964 1.72721 1.72721C1.38964 2.06477 1.2 2.52261 1.2 3V3.6H15.6ZM1.2 4.8V9C1.2 9.47739 1.38964 9.93523 1.72721 10.2728C2.06477 10.6104 2.52261 10.8 3 10.8H13.8C14.2774 10.8 14.7352 10.6104 15.0728 10.2728C15.4104 9.93523 15.6 9.47739 15.6 9V4.8H1.2Z" fill="black"/>
</svg>
